# xmcd
#
# Track frame offsets: 
#        150
#        12637
#        22088
#        33448
#        46124
#        59978
#        71728
#        81561
#        90950
#        100245
#        109900
#        121748
#        135636
#        146505
#        156750
#        168689
#        178337
#        189694
#        198672
#        209822
#
# Disc length: 2923 seconds
#
# Revision: 0
# Processed by: cddbd v1.5.2PL0 Copyright (c) Steve Scherf et al.
# Submitted via: ExactAudioCopy v0.99pb5
#
DISCID=360b6914
DTITLE=Various Artist - Country and Western Hits And Rarities CD01
DYEAR=1900
DGENRE=
TTITLE0=Johnny Cash - I Walk The Line
TTITLE1=Bob Luman - Let's Think About Livin'
TTITLE2=Don Gibson - Oh Lonesome Me
TTITLE3=Hank Williams - Move It On Over
TTITLE4=Bobby Bare - All American Boy
TTITLE5=Marty Robbins - That's All Right
TTITLE6=Cliff Johnson - Go Away Hound Dog
TTITLE7=Johnny Horton - I'm Coming Home
TTITLE8=Gene Davis - Muleskinner Blues
TTITLE9=Bobby Pedrick Jr. - White Bucks And Saddle Shoes
TTITLE10=Marvin Rainwater - Whole Lotta Woman
TTITLE11=Tennessee Ernie Ford - Mule Train
TTITLE12=Webb Pierce - Teenage Boogie
TTITLE13=George 'Thumper' Jones - Rock It
TTITLE14=Stonewall Jackson - Smoke Along The Track
TTITLE15=Al Terry - Watch Dog
TTITLE16=Marty Robbins - Maybelline
TTITLE17=Johnny Horton - I'm A One Woman Man
TTITLE18=Johnny Cash - Cry, Cry, Cry
TTITLE19=Don Gibson - Sweet Sweet Girl
EXTD=
EXTT0=
EXTT1=
EXTT2=
EXTT3=
EXTT4=
EXTT5=
EXTT6=
EXTT7=
EXTT8=
EXTT9=
EXTT10=
EXTT11=
EXTT12=
EXTT13=
EXTT14=
EXTT15=
EXTT16=
EXTT17=
EXTT18=
EXTT19=
PLAYORDER=
